<?xml version="1.0" encoding="UTF-8"?>
<svg xmlns="http://www.w3.org/2000/svg" width="520" height="160" viewBox="0 0 520 160" role="img" aria-label="WMS - Quan ly kho noi bo">
  <g transform="translate(8 8)">
    <rect x="0" y="0" width="144" height="144" rx="22" fill="#ffffff" stroke="#e8e8ec" stroke-width="1"/>
    <g transform="translate(8 8)">
      <path d="M22 60 L64 26 L106 60" fill="none" stroke="#0F3A6F" stroke-width="6" stroke-linejoin="round" stroke-linecap="round"/>
      <path d="M22 60 L22 102" stroke="#0F3A6F" stroke-width="6" stroke-linecap="round"/>
      <path d="M106 60 L106 102" stroke="#0F3A6F" stroke-width="6" stroke-linecap="round"/>
      <rect x="56" y="42" width="16" height="3.4" rx="1.5" fill="#0F3A6F"/>
      <rect x="56" y="49" width="16" height="3.4" rx="1.5" fill="#0F3A6F"/>
      <rect x="32" y="62" width="18" height="16" rx="1.6" fill="#F39C2A"/>
      <rect x="32" y="62" width="18" height="2.4" fill="#d8841c"/>
      <line x1="41" y1="62" x2="41" y2="78" stroke="#d8841c" stroke-width="1.2"/>
      <rect x="55" y="62" width="18" height="16" rx="1.6" fill="#F39C2A"/>
      <rect x="55" y="62" width="18" height="2.4" fill="#d8841c"/>
      <line x1="64" y1="62" x2="64" y2="78" stroke="#d8841c" stroke-width="1.2"/>
      <rect x="78" y="62" width="18" height="16" rx="1.6" fill="#F39C2A"/>
      <rect x="78" y="62" width="18" height="2.4" fill="#d8841c"/>
      <line x1="87" y1="62" x2="87" y2="78" stroke="#d8841c" stroke-width="1.2"/>
      <rect x="20" y="80" width="74" height="4" rx="1.4" fill="#0F3A6F"/>
      <rect x="32" y="86" width="18" height="14" rx="1.6" fill="#F39C2A"/>
      <rect x="32" y="86" width="18" height="2.2" fill="#d8841c"/>
      <line x1="41" y1="86" x2="41" y2="100" stroke="#d8841c" stroke-width="1.2"/>
      <rect x="55" y="86" width="18" height="14" rx="1.6" fill="#F39C2A"/>
      <rect x="55" y="86" width="18" height="2.2" fill="#d8841c"/>
      <line x1="64" y1="86" x2="64" y2="100" stroke="#d8841c" stroke-width="1.2"/>
      <circle cx="98" cy="98" r="16" fill="#ffffff"/>
      <circle cx="98" cy="98" r="13" fill="none" stroke="#0F3A6F" stroke-width="3.2"/>
      <path d="M91 98 L96 103 L106 92" fill="none" stroke="#0F3A6F" stroke-width="3.4" stroke-linecap="round" stroke-linejoin="round"/>
    </g>
  </g>
  <g transform="translate(176 0)" font-family="'Inter','Segoe UI','Helvetica Neue',Arial,sans-serif">
    <text x="0" y="92" font-size="78" font-weight="800" fill="#0F3A6F" letter-spacing="2">WMS</text>
    <line x1="0" y1="118" x2="22" y2="118" stroke="#0F3A6F" stroke-width="3" stroke-linecap="round"/>
    <text x="30" y="124" font-size="18" font-weight="700" fill="#0F3A6F" letter-spacing="3">QUẢN LÝ KHO NỘI BỘ</text>
    <line x1="284" y1="118" x2="306" y2="118" stroke="#0F3A6F" stroke-width="3" stroke-linecap="round"/>
  </g>
</svg>
